<svg width="19" height="19" viewBox="0 0 19 19" fill="none" xmlns="http://www.w3.org/2000/svg">
<path d="M14.6221 13.3237L14.9308 15.8254C15.01 16.4825 14.3054 16.9416 13.7433 16.6012L10.4262 14.63C10.0621 14.63 9.70583 14.6062 9.3575 14.5587C9.94333 13.87 10.2917 12.9991 10.2917 12.057C10.2917 9.80871 8.34416 7.98792 5.93749 7.98792C5.01916 7.98792 4.17208 8.24915 3.46749 8.70831C3.44374 8.5104 3.43582 8.31247 3.43582 8.10664C3.43582 4.50456 6.56291 1.58331 10.4262 1.58331C14.2896 1.58331 17.4167 4.50456 17.4167 8.10664C17.4167 10.2441 16.3162 12.1362 14.6221 13.3237Z" fill="#008043"/>
<path d="M10.2917 12.057C10.2917 12.9991 9.94335 13.87 9.35752 14.5587C8.57377 15.5087 7.33084 16.1183 5.93751 16.1183L3.87126 17.3454C3.52293 17.5591 3.07959 17.2662 3.12709 16.8625L3.32501 15.3029C2.26417 14.5667 1.58334 13.387 1.58334 12.057C1.58334 10.6637 2.32751 9.43664 3.46751 8.70831C4.1721 8.24914 5.01918 7.98792 5.93751 7.98792C8.34418 7.98792 10.2917 9.80871 10.2917 12.057Z" fill="#00B15D"/>
</svg>
